<?xml version="1.0" encoding="UTF-8"?><svg id="a" xmlns="http://www.w3.org/2000/svg" viewBox="0 0 343.75 521.929"><defs><style>.b{fill:#010101;}</style></defs><path class="b" d="M175.798,5.045c-.148-.416-.299-.831-.466-1.24-.173-.424-.364-.842-.587-1.242-.297-.533-.652-1.036-1.09-1.46-.165-.16-.342-.308-.53-.441-.192-.134-.395-.252-.608-.35-.438-.199-.918-.312-1.399-.312s-.961,.113-1.398,.312c-.213,.098-.416,.215-.608,.35-.188,.132-.365,.281-.53,.441-.438,.424-.793,.928-1.09,1.46-.438,.786-.751,1.634-1.053,2.482C111.209,159.685,55.981,314.324,.752,468.964c-2.103,5.89,.325,12.44,5.76,15.534,1.903,1.083,3.805,2.166,5.708,3.25,24.943,14.201,50.549,23.91,78.637,29.819,15.965,3.358,31.768,4.76,48.075,4.265,16.626-.505,31.48-4.138,46.463-11.363,12.673-6.112,23.532-13.822,33.482-23.771,43.841-43.841,43.841-114.921,0-158.762-10.74-10.739-22.219-20.304-34.72-28.929-12.343-8.515-23.677-17.959-34.28-28.562-26.274-26.273,9.161-67.472,39.069-45.424,1.404,1.035,2.781,1.481,4.525,1.465,1.852-.017,3.172-.571,4.482-1.88,1.49-1.49,2.981-2.981,4.472-4.472,1.309-1.309,1.846-2.621,1.831-4.472-.016-1.923-.623-3.19-2.112-4.407-20.22-16.531-49.852-14.303-67.373,5.065-17.521,19.369-16.778,49.074,1.69,67.542,11.42,11.421,23.628,21.592,36.922,30.763,11.55,7.969,22.156,16.805,32.079,26.728,36.431,36.431,36.431,95.498,0,131.929-8.289,8.289-17.336,14.744-27.871,19.886-12.486,6.094-24.885,9.2-38.769,9.713-13.799,.509-27.206-.547-40.755-3.209-26.695-5.245-51.019-14.179-74.763-27.456-.902-.505-1.441-1.135-1.798-2.105-.36-.974-.364-1.813-.015-2.791C71.329,327.763,121.17,188.207,171.012,48.652c.037-.104,.073-.201,.106-.292,.034,.09,.07,.188,.107,.292,51.641,144.596,103.283,289.191,154.924,433.787,1.163,3.256,4.984,4.673,7.989,2.962,1.903-1.083,3.805-2.166,5.708-3.25,3.807-2.168,4.707-4.595,3.234-8.72C287.318,317.302,231.558,161.173,175.798,5.045Z"/></svg>